<?xml version="1.0" encoding="iso-8859-1"?>
<!-- Generator: Adobe Illustrator 28.4.1, SVG Export Plug-In . SVG Version: 6.00 Build 0)  -->
<svg version="1.1" baseProfile="basic" xmlns="http://www.w3.org/2000/svg" xmlns:xlink="http://www.w3.org/1999/xlink" x="0px"
	 y="0px" viewBox="0 0 48 48" xml:space="preserve">
<g id="&#x421;&#x43B;&#x43E;&#x439;_1">
</g>
<g id="&#x421;&#x43B;&#x43E;&#x439;_2">
</g>
<g id="&#x421;&#x43B;&#x43E;&#x439;_3">
</g>
<g id="Man_With_Money">
</g>
<g id="Man_With_Money_1_">
</g>
<g id="Man_With_Money_2_">
</g>
<g id="Comparing">
</g>
<g id="Showing_Big_Size">
</g>
<g id="Afraid">
</g>
<g id="Mad">
</g>
<g id="Faint">
</g>
<g id="Winner">
</g>
<g id="Beach">
</g>
<g id="Island_On_Water">
</g>
<g id="&#x421;&#x43B;&#x43E;&#x439;_15">
</g>
<g id="&#x421;&#x43B;&#x43E;&#x439;_16">
</g>
<g id="&#x421;&#x43B;&#x43E;&#x439;_17">
	<path style="fill:#B3E5FC;" d="M44.104,21.491C41.236,20.16,34,13,24,13S6.764,20.16,3.896,21.491C0.564,23.037,0,25,0,26s1,3,5,3
		s12.041,5.368,15,5.862c2.922,0.488,4,0.336,4,0.336s1.078,0.152,4-0.336C30.959,34.368,39,29,43,29s5-2,5-3
		S47.436,23.037,44.104,21.491z"/>
	<path style="fill:#81D4FA;" d="M5,29c4,0,12.041,5.368,15,5.862c2.922,0.488,4,0.336,4,0.336s1.078,0.152,4-0.336
		C30.959,34.368,39,29,43,29s5-2,5-3H0C0,27,1,29,5,29z"/>
	<path style="fill:#E1F5FE;" d="M38.24,22.439C34.58,19.87,30.851,17.001,24,17v0c0,0-0.001,0-0.001,0s-0.001,0-0.001,0v0
		c-6.851,0.001-10.58,2.87-14.24,5.439C6.75,24.549,3.997,25.31,3.997,26c0,1,0.943,0.515,3.009,0.828
		C9,27.13,17.998,31.69,23.998,31.692v0c0,0,0.001,0,0.001,0s0.001,0,0.001,0v0c6-0.001,14.998-4.561,16.992-4.863
		C43.058,26.515,44.001,27,44.001,26C44.001,25.31,41.248,24.549,38.24,22.439z"/>
	<path style="fill:#81D4FA;" d="M33,23c0-1.626-0.438-3.147-1.192-4.464C29.671,17.62,27.173,17,24,17v0c0,0-0.001,0-0.001,0
		s-0.001,0-0.001,0v0c-3.171,0-5.669,0.619-7.805,1.535C15.438,19.852,15,21.373,15,23c0,3.725,2.263,6.922,5.49,8.289
		c1.228,0.248,2.418,0.402,3.508,0.402v0c0,0,0.001,0,0.001,0s0.001,0,0.001,0v0c1.091,0,2.282-0.154,3.511-0.403
		C30.737,29.921,33,26.725,33,23z"/>
	<circle style="fill:#455A64;" cx="24" cy="23.5" r="3.5"/>
	<circle style="fill:#B3E5FC;" cx="24" cy="23.5" r="1"/>
	<circle style="fill:#E1F5FE;" cx="28" cy="20" r="1"/>
	<path style="fill:#4FC3F7;" d="M7.908,25.255c-0.21-0.475-0.703-0.771-1.269-0.957C5.085,25.104,3.997,25.566,3.997,26
		c0,1,0.943,0.515,3.009,0.828c0.124,0.019,0.276,0.054,0.452,0.104C7.886,26.479,8.191,25.895,7.908,25.255z"/>
	<path style="fill:#4FC3F7;" d="M40.09,25.258c0.21-0.475,0.703-0.771,1.269-0.957c1.554,0.807,2.642,1.269,2.642,1.703
		c0,1-0.943,0.515-3.009,0.828c-0.124,0.019-0.276,0.054-0.452,0.104C40.111,26.483,39.807,25.899,40.09,25.258z"/>
</g>
</svg>